<?xml version="1.0" encoding="UTF-8"?>
<svg id="Layer_2" data-name="Layer 2" xmlns="http://www.w3.org/2000/svg" viewBox="0 0 16 16.01">
  <defs>
    <style>
      .cls-1 {
        fill: #9f2b68;
      }

      .cls-2 {
        fill: #ffcfc4;
      }
    </style>
  </defs>
  <g id="Layer_1-2" data-name="Layer 1">
    <g>
      <g>
        <path class="cls-2" d="M15.43,15.59c.03,.25,.02,.26-.24,.24-1.76-.12-3.53-.19-5.29-.15-.24,0-.49,.02-.73,.03-.18,0-.29,.11-.4,.22-.09,.09-.17,.1-.28,.04-.29-.14-.3-.13-.07-.34,1.34-1.24,2.98-1.69,4.83-1.64,.14,0,.27,.01,.41,.03,.25,.02,.25,.03,.24-.21-.03-.52-.07-1.03-.11-1.54-.09-1.2-.18-2.4-.28-3.6-.03-.44-.06-.87-.09-1.31,0-.04-.03-.1,.03-.12,.04-.02,.07,.03,.11,.05,.37,.24,.36,.24,.4,.66,.17,1.77,.35,3.54,.52,5.32,.06,.66,.12,1.32,.21,1.98,.02,.12-.03,.13-.14,.11-.74-.09-1.49-.17-2.24-.21-.9-.04-1.77,.06-2.62,.33-.11,.03-.22,.08-.32,.12-.03,.01-.05,.03-.08,.04,.39-.06,.78-.14,1.17-.21,.84-.14,1.69-.11,2.53-.04,.61,.05,1.22,.1,1.83,.17,.16,.02,.19-.03,.18-.17-.12-1.22-.24-2.44-.35-3.66-.11-1.19-.27-2.38-.36-3.57,0-.06-.08-.16,.04-.18,.14-.03,.31,.09,.32,.19,.03,.32,.07,.65,.1,.97,.17,1.55,.33,3.09,.5,4.64,.07,.61,.13,1.22,.19,1.83Z"/>
        <path class="cls-2" d="M13.41,13.23c.01,.19,0,.19-.2,.19-1.07-.03-2.09,.16-3.07,.57-.76,.32-1.39,.8-1.88,1.43-.04,.05-.07,.12-.16,.16,0-.05,0-.08,0-.11,0-2.39,.02-4.79,.01-7.18,0-.22,.07-.36,.23-.51,.81-.75,1.81-1.12,2.91-1.29,.48-.07,.97-.09,1.45-.09,.13,0,.18,.04,.18,.16,.08,1,.16,2.01,.24,3.01,.09,1.22,.18,2.43,.27,3.65Z"/>
        <path class="cls-2" d="M7.87,15.27v.3s-.03,0-.05,0c-.16-.21-.33-.42-.52-.61-.63-.6-1.4-.99-2.25-1.25-.74-.23-1.5-.32-2.28-.32-.24,0-.23,.04-.21-.2,.07-1.24,.15-2.48,.23-3.72,.06-.97,.13-1.94,.19-2.91,0-.09,.03-.14,.14-.14,1.3-.03,2.54,.17,3.67,.79,.34,.19,.66,.41,.94,.67,.08,.07,.12,.15,.12,.26,0,.21,0,.41,0,.62,0,2.17,0,4.35,0,6.52Z"/>
        <path class="cls-2" d="M6.66,15.63c-.35-.17-.72-.25-1.09-.33-1.07-.23-2.15-.21-3.23-.08-.32,.04-.65,.08-.97,.12-.08,.01-.13,0-.11-.1,.11-.55,.13-1.1,.18-1.66,.12-1.23,.23-2.47,.34-3.7,.06-.69,.12-1.38,.17-2.07,.01-.21,.07-.37,.27-.47,.1-.05,.21-.2,.28-.16,.1,.05,.03,.21,.02,.31-.14,1.96-.29,3.92-.43,5.88-.01,.17-.01,.33-.03,.5-.01,.13,.04,.14,.16,.13,1.01-.07,2.01-.04,2.98,.28,.93,.31,1.76,.76,2.46,1.42,.14,.13,.13,.12-.03,.2-.2,.1-.37,.12-.54-.06-.09-.1-.24-.12-.39-.13-.02,0-.05,0-.07,0v-.06s.03,0,.04,0Z"/>
        <path class="cls-2" d="M6.62,15.64v.06c-1.91-.09-3.81,0-5.72,.12-.38,.02-.39,.02-.35-.33,.09-.95,.2-1.91,.3-2.86,.14-1.42,.28-2.84,.42-4.26,0-.08,0-.16,0-.24,0-.05,.01-.1,.07-.11,.08-.02,.18-.1,.25-.06,.07,.04,.02,.15,.02,.22-.15,1.7-.3,3.41-.45,5.11-.06,.7-.12,1.39-.18,2.09-.01,.13,.01,.18,.18,.16,.73-.07,1.46-.14,2.19-.2,1.08-.08,2.14,.03,3.19,.27,.02,0,.05,.02,.08,.02Z"/>
      </g>
      <path d="M15.84,11.98h.16v.12c-.25,.03-.54,.05-.85,.05s-.7-.06-1.15-.19c-.46-.12-.87-.36-1.24-.69-.76-.69-1.22-1.59-1.38-2.7l-.83-5.51-2.82,5.82c-.25,.5-.41,.93-.46,1.26h-.14L3.61,3.17l-.6,6.16c-.02,.14,.03,.26,.14,.37,.11,.11,.24,.16,.37,.16h.22v.11H1.11v-.12h.22c.24,0,.46-.07,.64-.2,.19-.14,.3-.32,.35-.54l.85-6.77C2.38,.91,1.42,.2,.31,.2c-.1,0-.2,0-.31,.01V.09c.24-.06,.44-.09,.6-.09s.32,0,.5,.02c.18,.01,.39,.05,.64,.12,.24,.07,.47,.16,.69,.29,.22,.13,.41,.26,.57,.4s.32,.29,.46,.45c.24,.3,.44,.58,.58,.86l3.27,6.47L10.97,1.13h.12l1.26,7.34c.19,1.16,.6,2.03,1.23,2.63,.63,.59,1.38,.89,2.26,.89Z"/>
      <path class="cls-1" d="M9.95,9.38c-.49,.63-.73,1.31-.73,2.03,0,.87,.37,1.54,1.11,2.02,.43,.29,.92,.43,1.47,.43s1.02-.11,1.43-.32c.76-.39,1.18-1.04,1.28-1.95,0-.06,.01-.13,.01-.19,0-.34-.1-.71-.29-1.11-.19-.4-.5-.76-.93-1.09l-2.53-1.97c-.55-.42-.83-.97-.83-1.65s.22-1.24,.66-1.71c.44-.47,1.03-.7,1.78-.7,.37,0,.78,.05,1.22,.14h.56l.03,1.7h-.14c0-.44-.17-.79-.48-1.04-.31-.25-.71-.38-1.18-.38s-.87,.15-1.19,.46c-.32,.31-.48,.71-.48,1.19s.21,.89,.62,1.21l2.6,2.02c1.03,.8,1.54,1.77,1.54,2.91,0,.85-.34,1.58-1.03,2.19-.59,.53-1.38,.79-2.36,.79-.6,0-1.13-.11-1.6-.33-.88-.41-1.41-1.1-1.59-2.08-.03-.15-.04-.33-.04-.56s.07-.54,.2-.93c.13-.39,.38-.79,.76-1.18l.13,.1Z"/>
    </g>
  </g>
</svg>